<?xml version="1.0" encoding="UTF-8" ?>
<!DOCTYPE svg PUBLIC "-//W3C//DTD SVG 1.1//EN" "http://www.w3.org/Graphics/SVG/1.1/DTD/svg11.dtd">
<svg width="1541pt" height="1532pt" viewBox="0 0 1541 1532" version="1.1" xmlns="http://www.w3.org/2000/svg">
<path fill="#020202" opacity="1.00" d=" M 690.00 0.00 L 690.88 0.00 C 729.96 10.64 737.14 58.15 770.86 75.52 C 792.94 65.09 801.07 40.11 817.39 23.41 C 823.74 10.04 838.71 7.26 850.13 0.00 L 851.88 0.00 C 887.36 18.91 885.37 66.05 914.18 90.61 C 950.62 81.10 966.94 34.18 1007.78 34.18 C 1041.73 57.11 1027.24 106.31 1051.85 134.83 C 1089.61 133.24 1115.77 89.89 1155.66 99.81 C 1182.25 130.23 1159.19 173.75 1176.38 207.04 C 1213.30 212.98 1248.81 177.56 1285.62 194.30 C 1304.25 229.68 1275.50 267.03 1283.24 303.47 C 1318.37 317.53 1361.71 288.94 1393.75 314.59 C 1403.93 353.30 1367.45 382.87 1368.35 420.00 C 1399.28 441.95 1446.97 422.16 1473.67 453.14 C 1477.00 493.66 1433.07 515.31 1427.30 552.56 C 1453.90 578.56 1501.18 571.02 1522.68 604.77 C 1520.39 646.25 1469.89 658.07 1457.33 693.71 C 1477.63 725.20 1526.86 726.78 1539.81 765.15 C 1527.68 804.26 1477.39 806.22 1457.26 838.05 C 1471.30 872.89 1519.36 885.96 1523.17 926.36 C 1501.30 960.26 1454.46 952.82 1427.26 978.54 C 1433.01 1015.78 1477.91 1038.82 1473.22 1079.07 C 1445.20 1108.58 1400.22 1091.00 1368.14 1110.61 C 1366.97 1148.59 1405.59 1179.55 1392.75 1218.44 C 1385.22 1221.72 1377.46 1224.48 1369.92 1227.72 C 1341.22 1231.22 1311.20 1217.22 1283.19 1227.45 C 1275.67 1264.21 1304.05 1301.75 1285.51 1337.54 C 1248.04 1353.28 1213.97 1318.79 1176.88 1324.33 C 1157.98 1357.04 1183.09 1403.05 1154.54 1432.07 C 1114.60 1440.45 1089.23 1398.22 1051.68 1396.23 C 1027.66 1425.27 1041.30 1474.23 1007.96 1497.63 C 967.06 1496.96 950.63 1450.59 914.26 1441.13 C 886.94 1461.43 890.06 1505.06 860.79 1523.79 C 856.28 1528.42 849.94 1533.41 843.96 1528.12 C 809.27 1516.10 802.50 1471.97 770.91 1456.11 C 737.39 1472.98 730.28 1521.23 690.88 1530.75 C 653.46 1514.87 656.33 1464.41 626.72 1441.03 C 590.19 1450.43 574.15 1497.14 533.15 1497.53 C 500.84 1473.51 512.92 1425.72 489.56 1396.21 C 451.75 1398.36 425.35 1441.68 385.46 1431.32 C 359.15 1401.02 381.20 1358.05 365.21 1324.55 C 327.96 1317.86 292.20 1354.39 255.22 1336.76 C 236.72 1301.06 267.06 1263.82 257.61 1227.55 C 222.58 1213.91 180.62 1242.11 148.34 1217.53 C 136.10 1178.81 174.29 1148.36 172.79 1111.06 C 141.25 1089.96 94.00 1109.09 67.32 1078.00 C 65.21 1037.82 108.45 1015.85 113.74 978.53 C 86.88 952.65 38.58 960.64 18.16 925.67 C 22.38 885.38 70.37 873.03 83.80 838.15 C 64.17 806.11 13.17 804.16 1.40 765.24 C 14.61 727.01 63.22 724.96 83.82 693.83 C 71.06 658.56 21.71 646.13 18.50 605.52 C 38.86 570.37 87.49 579.12 113.81 552.46 C 108.77 514.97 62.54 492.42 68.10 452.08 C 96.20 422.73 141.52 440.83 172.98 420.31 C 174.20 382.50 135.60 351.87 148.67 312.76 C 161.67 307.88 174.42 299.72 189.02 303.78 C 211.85 303.07 235.85 313.89 257.66 303.62 C 266.99 267.42 236.25 229.95 255.40 194.36 C 292.24 177.50 327.65 212.55 364.66 207.13 C 381.90 173.99 359.24 130.36 385.42 99.75 C 425.22 90.34 452.40 133.45 490.12 134.67 C 512.54 108.71 499.83 66.64 525.19 42.27 C 528.87 38.10 532.24 31.11 538.93 34.97 C 576.68 38.36 592.45 82.09 627.68 90.61 C 655.39 65.48 653.94 18.21 690.00 0.00 M 691.31 12.35 C 663.62 27.84 662.18 64.04 644.80 87.82 C 637.98 92.87 632.12 106.61 622.28 99.79 C 587.94 91.20 572.80 48.38 536.34 45.23 C 507.81 71.70 522.67 118.86 494.42 145.95 C 455.61 147.69 430.51 106.25 391.87 109.41 C 368.64 140.61 392.81 184.94 371.57 216.82 C 334.03 227.79 300.79 190.52 263.58 202.39 C 248.01 238.04 280.47 275.06 266.88 311.52 C 232.11 330.05 191.14 300.74 157.18 320.52 C 150.96 358.52 188.89 387.95 183.20 426.24 C 153.04 451.44 107.84 432.25 78.19 457.29 C 78.60 496.42 124.47 517.58 125.24 556.43 C 100.80 586.83 52.30 576.82 29.36 608.19 C 37.91 645.85 85.58 656.79 95.81 694.13 C 79.38 729.07 29.72 730.46 13.09 765.16 C 27.35 801.86 81.12 801.36 95.59 837.58 C 85.02 874.53 37.75 885.89 29.22 923.73 C 53.54 953.94 102.24 945.08 125.58 975.85 C 123.10 1014.48 78.87 1035.11 78.15 1073.70 C 107.10 1099.72 151.99 1080.00 182.25 1104.24 C 190.59 1142.47 149.95 1172.90 157.47 1211.15 C 191.18 1229.53 231.21 1202.48 265.96 1219.10 C 281.86 1254.67 247.72 1292.77 263.27 1328.68 C 300.54 1340.05 335.56 1303.88 372.54 1315.26 C 391.56 1348.15 369.90 1390.23 391.56 1421.83 C 430.12 1426.01 455.21 1383.75 493.82 1385.08 C 523.42 1410.77 506.50 1460.79 536.38 1485.92 C 575.12 1482.50 591.84 1433.80 630.26 1429.73 C 657.24 1449.04 659.53 1485.28 679.02 1509.93 C 684.07 1512.91 689.04 1521.53 695.63 1517.74 C 729.02 1502.79 735.39 1456.75 770.86 1444.19 C 807.35 1457.69 812.77 1507.35 849.80 1518.92 C 883.45 1499.74 878.89 1449.40 912.03 1429.30 C 950.34 1435.66 966.59 1482.55 1005.35 1485.80 C 1033.78 1459.47 1018.68 1411.35 1047.14 1385.08 C 1080.81 1385.15 1104.23 1413.52 1135.18 1422.11 C 1149.35 1427.47 1154.30 1415.86 1158.62 1405.44 C 1162.55 1375.24 1153.59 1342.59 1169.05 1314.85 C 1206.18 1303.55 1240.51 1340.38 1277.75 1328.83 C 1293.16 1292.99 1259.77 1255.07 1275.32 1219.39 C 1309.78 1202.66 1349.59 1229.50 1383.42 1211.30 C 1391.60 1172.93 1350.66 1142.41 1358.72 1104.21 C 1389.19 1080.40 1434.44 1099.26 1463.02 1073.37 C 1462.06 1034.52 1416.79 1013.86 1416.19 974.53 C 1441.20 945.13 1488.89 954.05 1512.00 922.86 C 1503.04 885.39 1454.42 873.97 1445.45 836.38 C 1463.33 801.97 1511.61 800.64 1528.59 765.94 C 1512.28 730.77 1463.78 729.61 1445.67 695.42 C 1453.93 657.30 1503.50 646.41 1511.93 608.15 C 1490.70 579.48 1447.69 586.03 1422.73 562.33 C 1410.49 557.01 1419.69 544.24 1421.00 535.06 C 1432.59 508.40 1463.57 489.04 1462.88 457.52 C 1433.54 431.55 1388.07 451.17 1357.77 426.29 C 1352.67 389.59 1387.04 361.58 1384.26 325.89 C 1385.69 317.16 1374.84 317.85 1369.64 314.28 C 1338.05 309.52 1303.30 327.49 1273.99 310.81 C 1261.29 274.55 1293.29 237.85 1277.48 202.32 C 1240.58 191.78 1207.51 226.19 1170.17 217.00 C 1147.53 185.62 1172.17 140.77 1149.55 109.13 C 1110.76 106.62 1085.48 147.80 1046.53 145.88 C 1018.68 118.72 1033.16 72.10 1005.47 45.29 C 968.89 47.86 953.44 90.39 919.53 99.60 C 909.59 106.20 902.37 92.99 895.75 87.23 C 879.42 63.09 876.73 27.83 849.84 12.04 C 812.86 24.01 807.63 73.74 770.89 86.86 C 734.02 74.43 728.33 23.79 691.31 12.35 Z" />
<path fill="#808080" opacity="1.00" d=" M 691.31 12.35 C 728.33 23.79 734.02 74.43 770.89 86.86 C 807.63 73.74 812.86 24.01 849.84 12.04 C 876.73 27.83 879.42 63.09 895.75 87.23 C 902.37 92.99 909.59 106.20 919.53 99.60 C 953.44 90.39 968.89 47.86 1005.47 45.29 C 1033.16 72.10 1018.68 118.72 1046.53 145.88 C 1085.48 147.80 1110.76 106.62 1149.55 109.13 C 1172.17 140.77 1147.53 185.62 1170.17 217.00 C 1207.51 226.19 1240.58 191.78 1277.48 202.32 C 1293.29 237.85 1261.29 274.55 1273.99 310.81 C 1303.30 327.49 1338.05 309.52 1369.64 314.28 C 1374.84 317.85 1385.69 317.16 1384.26 325.89 C 1387.04 361.58 1352.67 389.59 1357.77 426.29 C 1388.07 451.17 1433.54 431.55 1462.88 457.52 C 1463.57 489.04 1432.59 508.40 1421.00 535.06 C 1419.69 544.24 1410.49 557.01 1422.73 562.33 C 1447.69 586.03 1490.70 579.48 1511.93 608.15 C 1503.50 646.41 1453.93 657.30 1445.67 695.42 C 1463.78 729.61 1512.28 730.77 1528.59 765.94 C 1511.61 800.64 1463.33 801.97 1445.45 836.38 C 1454.42 873.97 1503.04 885.39 1512.00 922.86 C 1488.89 954.05 1441.20 945.13 1416.19 974.53 C 1416.79 1013.86 1462.06 1034.52 1463.02 1073.37 C 1434.44 1099.26 1389.19 1080.40 1358.72 1104.21 C 1350.66 1142.41 1391.60 1172.93 1383.42 1211.30 C 1349.59 1229.50 1309.78 1202.66 1275.32 1219.39 C 1259.77 1255.07 1293.16 1292.99 1277.75 1328.83 C 1240.51 1340.38 1206.18 1303.55 1169.05 1314.85 C 1153.59 1342.59 1162.55 1375.24 1158.62 1405.44 C 1154.30 1415.86 1149.35 1427.47 1135.18 1422.11 C 1104.23 1413.52 1080.81 1385.15 1047.14 1385.08 C 1018.68 1411.35 1033.78 1459.47 1005.35 1485.80 C 966.59 1482.55 950.34 1435.66 912.03 1429.30 C 878.89 1449.40 883.45 1499.74 849.80 1518.92 C 812.77 1507.35 807.35 1457.69 770.86 1444.19 C 735.39 1456.75 729.02 1502.79 695.63 1517.74 C 689.04 1521.53 684.07 1512.91 679.02 1509.93 C 659.53 1485.28 657.24 1449.04 630.26 1429.73 C 591.84 1433.80 575.12 1482.50 536.38 1485.92 C 506.50 1460.79 523.42 1410.77 493.82 1385.08 C 455.21 1383.75 430.12 1426.01 391.56 1421.83 C 369.90 1390.23 391.56 1348.15 372.54 1315.26 C 335.56 1303.88 300.54 1340.05 263.27 1328.68 C 247.72 1292.77 281.86 1254.67 265.96 1219.10 C 231.21 1202.48 191.18 1229.53 157.47 1211.15 C 149.95 1172.90 190.59 1142.47 182.25 1104.24 C 151.99 1080.00 107.10 1099.72 78.15 1073.70 C 78.87 1035.11 123.10 1014.48 125.58 975.85 C 102.24 945.08 53.54 953.94 29.22 923.73 C 37.75 885.89 85.02 874.53 95.59 837.58 C 81.12 801.36 27.35 801.86 13.09 765.16 C 29.72 730.46 79.38 729.07 95.81 694.13 C 85.58 656.79 37.91 645.85 29.36 608.19 C 52.30 576.82 100.80 586.83 125.24 556.43 C 124.47 517.58 78.60 496.42 78.19 457.29 C 107.84 432.25 153.04 451.44 183.20 426.24 C 188.89 387.95 150.96 358.52 157.18 320.52 C 191.14 300.74 232.11 330.05 266.88 311.52 C 280.47 275.06 248.01 238.04 263.58 202.39 C 300.79 190.52 334.03 227.79 371.57 216.82 C 392.81 184.94 368.64 140.61 391.87 109.41 C 430.51 106.25 455.61 147.69 494.42 145.95 C 522.67 118.86 507.81 71.70 536.34 45.23 C 572.80 48.38 587.94 91.20 622.28 99.79 C 632.12 106.61 637.98 92.87 644.80 87.82 C 662.18 64.04 663.62 27.84 691.31 12.35 M 744.49 153.49 C 607.75 159.32 473.35 212.07 370.25 302.26 C 287.32 373.66 224.14 467.75 189.62 571.61 C 154.45 675.49 148.79 788.85 172.04 895.96 C 199.48 1024.07 269.90 1142.40 369.01 1227.99 C 459.99 1307.68 575.25 1358.91 695.24 1373.73 C 872.08 1395.77 1057.59 1337.02 1187.28 1214.27 C 1317.78 1094.62 1391.97 915.75 1382.29 738.72 C 1375.70 554.21 1279.25 376.02 1128.88 269.12 C 1018.75 188.56 880.69 147.66 744.49 153.49 Z" />
<path fill="#020202" opacity="1.00" d=" M 744.49 153.49 C 880.69 147.66 1018.75 188.56 1128.88 269.12 C 1279.25 376.02 1375.70 554.21 1382.29 738.72 C 1391.97 915.75 1317.78 1094.62 1187.28 1214.27 C 1057.59 1337.02 872.08 1395.77 695.24 1373.73 C 575.25 1358.91 459.99 1307.68 369.01 1227.99 C 269.90 1142.40 199.48 1024.07 172.04 895.96 C 148.79 788.85 154.45 675.49 189.62 571.61 C 224.14 467.75 287.32 373.66 370.25 302.26 C 473.35 212.07 607.75 159.32 744.49 153.49 M 728.59 164.49 C 543.67 176.24 367.61 279.51 267.11 435.11 C 307.34 389.72 369.21 363.62 430.07 371.95 C 502.84 379.50 567.34 434.80 586.89 505.10 C 598.87 545.93 595.91 591.02 578.95 630.00 C 619.26 575.25 682.98 537.28 751.06 532.18 C 694.29 526.58 641.39 492.82 612.04 443.96 C 581.02 394.67 576.46 330.36 598.70 276.70 C 622.11 219.53 675.68 175.02 736.88 164.78 C 736.15 162.11 729.99 166.00 728.59 164.49 M 804.37 163.94 C 861.84 175.00 917.62 216.71 940.96 273.04 C 961.09 317.86 961.21 370.70 943.26 416.25 C 918.55 478.64 857.96 525.60 790.91 531.97 C 858.02 537.94 922.36 574.85 962.05 630.00 C 947.09 594.91 943.04 555.45 951.12 518.10 C 967.31 435.37 1046.27 369.44 1131.00 370.90 C 1185.44 369.05 1238.07 395.04 1274.10 434.92 C 1171.88 277.21 992.17 173.34 804.37 163.94 M 751.56 172.54 C 699.59 177.68 651.06 208.11 623.07 252.07 C 592.55 297.57 586.65 357.93 606.02 408.99 C 626.38 464.42 676.61 507.82 734.59 519.40 C 805.78 535.50 884.26 500.91 921.09 438.09 C 955.19 383.38 954.73 309.26 920.05 254.94 C 885.77 198.28 817.55 164.33 751.56 172.54 M 390.56 381.54 C 357.22 384.82 325.04 397.91 299.00 419.00 C 241.01 463.59 217.30 545.92 242.37 614.63 C 260.54 666.88 304.88 709.44 358.01 725.01 C 410.93 741.21 471.34 729.98 515.03 696.03 C 566.53 657.46 593.67 589.08 581.32 525.72 C 567.74 437.77 479.03 370.51 390.56 381.54 M 1117.58 381.56 C 1052.62 386.06 993.13 431.16 969.57 491.56 C 938.08 566.17 967.58 659.73 1036.00 703.00 C 1100.47 747.77 1194.40 740.02 1251.36 686.35 C 1295.89 646.13 1317.73 582.43 1305.57 523.45 C 1290.99 437.62 1204.51 371.23 1117.58 381.56 M 232.27 495.27 C 232.77 495.77 232.77 495.77 232.27 495.27 M 1308.11 494.89 C 1317.72 521.13 1321.12 549.69 1317.42 577.43 C 1310.28 654.58 1248.58 722.20 1172.99 737.98 C 1102.62 754.88 1025.86 724.41 982.98 667.05 C 1012.43 728.76 1011.51 803.17 982.96 865.02 C 1009.70 829.53 1048.73 802.77 1092.47 793.48 C 1167.91 775.13 1251.68 811.27 1291.19 877.80 C 1320.57 923.93 1326.52 983.37 1308.84 1034.92 C 1395.08 869.22 1394.16 660.51 1308.11 494.89 M 231.46 497.43 C 146.57 663.63 146.82 871.44 233.11 1036.90 C 202.18 954.86 239.85 854.62 317.10 813.10 C 395.49 766.20 504.63 790.62 558.03 863.95 C 529.14 802.49 529.68 728.53 558.06 667.00 C 529.56 704.11 487.88 731.42 441.46 739.45 C 356.98 756.55 266.32 705.34 235.72 625.29 C 218.15 585.36 219.89 536.17 231.46 497.43 M 751.60 542.57 C 710.73 545.60 670.93 560.61 638.08 585.08 C 571.15 633.08 534.96 720.14 549.53 801.47 C 564.66 911.31 672.33 998.78 783.15 989.12 C 869.49 986.09 949.98 926.70 979.90 845.91 C 1002.16 789.41 999.10 723.74 972.93 669.06 C 934.53 586.73 842.41 532.93 751.60 542.57 M 396.53 799.49 C 309.34 803.25 233.13 881.69 232.93 969.03 C 228.83 1041.03 275.53 1111.37 342.16 1137.84 C 405.65 1164.45 484.24 1148.71 532.31 1099.31 C 592.43 1041.96 601.20 940.81 552.19 873.82 C 517.67 824.46 456.81 794.55 396.53 799.49 M 1122.54 799.49 C 1065.26 802.13 1010.98 835.70 981.98 884.98 C 948.22 939.70 948.97 1013.30 983.58 1067.42 C 1007.83 1106.57 1047.91 1136.00 1092.99 1145.98 C 1155.48 1161.29 1225.78 1138.57 1266.63 1088.63 C 1300.30 1050.08 1315.23 996.18 1306.23 945.79 C 1293.77 859.84 1209.29 791.98 1122.54 799.49 M 579.01 900.88 C 608.58 968.19 593.86 1052.46 541.29 1104.29 C 496.99 1151.20 427.03 1171.49 364.52 1155.46 C 326.19 1146.73 291.83 1124.11 266.12 1094.86 C 367.70 1252.43 547.26 1358.34 734.90 1366.50 C 644.76 1350.52 575.43 1260.04 585.57 1168.60 C 590.77 1082.89 663.23 1008.95 748.08 999.27 C 681.00 992.37 618.15 955.77 579.01 900.88 M 961.48 901.48 C 922.79 956.19 859.72 992.63 793.01 999.07 C 881.84 1008.90 958.84 1091.75 956.10 1183.01 C 959.41 1270.47 890.34 1350.96 805.95 1367.03 C 993.87 1357.37 1173.16 1252.99 1275.13 1095.08 C 1251.16 1121.59 1220.65 1142.98 1186.02 1153.03 C 1132.95 1169.31 1072.77 1159.52 1027.35 1127.65 C 969.41 1088.42 937.19 1014.67 949.52 945.53 C 950.93 930.80 957.91 913.11 961.48 901.48 M 762.60 1008.54 C 685.30 1010.44 614.57 1070.48 598.97 1145.95 C 581.93 1217.12 615.68 1296.20 678.42 1333.58 C 732.10 1368.07 805.06 1368.45 859.60 1335.59 C 930.92 1295.41 965.25 1202.41 936.40 1125.59 C 912.28 1054.20 838.01 1003.44 762.60 1008.54 M 1308.27 1036.27 C 1308.76 1036.76 1308.76 1036.76 1308.27 1036.27 Z" />
<path fill="#808080" opacity="1.00" d=" M 728.59 164.49 C 729.99 166.00 736.15 162.11 736.88 164.78 C 675.68 175.02 622.11 219.53 598.70 276.70 C 576.46 330.36 581.02 394.67 612.04 443.96 C 641.39 492.82 694.29 526.58 751.06 532.18 C 682.98 537.28 619.26 575.25 578.95 630.00 C 595.91 591.02 598.87 545.93 586.89 505.10 C 567.34 434.80 502.84 379.50 430.07 371.95 C 369.21 363.62 307.34 389.72 267.11 435.11 C 367.61 279.51 543.67 176.24 728.59 164.49 Z" />
<path fill="#808080" opacity="1.00" d=" M 804.37 163.94 C 992.17 173.34 1171.88 277.21 1274.10 434.92 C 1238.07 395.04 1185.44 369.05 1131.00 370.90 C 1046.27 369.44 967.31 435.37 951.12 518.10 C 943.04 555.45 947.09 594.91 962.05 630.00 C 922.36 574.85 858.02 537.94 790.91 531.97 C 857.96 525.60 918.55 478.64 943.26 416.25 C 961.21 370.70 961.09 317.86 940.96 273.04 C 917.62 216.71 861.84 175.00 804.37 163.94 Z" />
<path fill="#808080" opacity="1.00" d=" M 232.27 495.27 C 232.77 495.77 232.77 495.77 232.27 495.27 Z" />
<path fill="#808080" opacity="1.00" d=" M 1308.11 494.89 C 1394.16 660.51 1395.08 869.22 1308.84 1034.92 C 1326.52 983.37 1320.57 923.93 1291.19 877.80 C 1251.68 811.27 1167.91 775.13 1092.47 793.48 C 1048.73 802.77 1009.70 829.53 982.96 865.02 C 1011.51 803.17 1012.43 728.76 982.98 667.05 C 1025.86 724.41 1102.62 754.88 1172.99 737.98 C 1248.58 722.20 1310.28 654.58 1317.42 577.43 C 1321.12 549.69 1317.72 521.13 1308.11 494.89 Z" />
<path fill="#808080" opacity="1.00" d=" M 231.46 497.43 C 219.89 536.17 218.15 585.36 235.72 625.29 C 266.32 705.34 356.98 756.55 441.46 739.45 C 487.88 731.42 529.56 704.11 558.06 667.00 C 529.68 728.53 529.14 802.49 558.03 863.95 C 504.63 790.62 395.49 766.20 317.10 813.10 C 239.85 854.62 202.18 954.86 233.11 1036.90 C 146.82 871.44 146.57 663.63 231.46 497.43 Z" />
<path fill="#808080" opacity="1.00" d=" M 751.60 542.57 C 842.41 532.93 934.53 586.73 972.93 669.06 C 999.10 723.74 1002.16 789.41 979.90 845.91 C 949.98 926.70 869.49 986.09 783.15 989.12 C 672.33 998.78 564.66 911.31 549.53 801.47 C 534.96 720.14 571.15 633.08 638.08 585.08 C 670.93 560.61 710.73 545.60 751.60 542.57 M 756.62 608.56 C 691.66 613.40 633.53 662.86 617.97 725.97 C 604.33 776.09 618.28 832.45 653.14 870.85 C 701.19 926.60 789.51 939.91 851.83 900.83 C 906.32 868.94 937.63 802.11 926.19 739.79 C 914.81 660.94 836.02 599.36 756.62 608.56 Z" />
<path fill="#020202" opacity="1.00" d=" M 756.62 608.56 C 836.02 599.36 914.81 660.94 926.19 739.79 C 937.63 802.11 906.32 868.94 851.83 900.83 C 789.51 939.91 701.19 926.60 653.14 870.85 C 618.28 832.45 604.33 776.09 617.97 725.97 C 633.53 662.86 691.66 613.40 756.62 608.56 M 759.61 618.56 C 718.52 621.26 679.09 642.36 654.02 675.01 C 621.87 715.85 613.54 773.93 634.16 821.85 C 656.95 880.11 720.27 919.21 782.68 912.83 C 860.65 908.45 925.72 833.22 917.79 755.34 C 914.57 676.40 838.31 610.10 759.61 618.56 Z" />
<path fill="#808080" opacity="1.00" d=" M 579.01 900.88 C 618.15 955.77 681.00 992.37 748.08 999.27 C 663.23 1008.95 590.77 1082.89 585.57 1168.60 C 575.43 1260.04 644.76 1350.52 734.90 1366.50 C 547.26 1358.34 367.70 1252.43 266.12 1094.86 C 291.83 1124.11 326.19 1146.73 364.52 1155.46 C 427.03 1171.49 496.99 1151.20 541.29 1104.29 C 593.86 1052.46 608.58 968.19 579.01 900.88 Z" />
<path fill="#808080" opacity="1.00" d=" M 961.48 901.48 C 957.91 913.11 950.93 930.80 949.52 945.53 C 937.19 1014.67 969.41 1088.42 1027.35 1127.65 C 1072.77 1159.52 1132.95 1169.31 1186.02 1153.03 C 1220.65 1142.98 1251.16 1121.59 1275.13 1095.08 C 1173.16 1252.99 993.87 1357.37 805.95 1367.03 C 890.34 1350.96 959.41 1270.47 956.10 1183.01 C 958.84 1091.75 881.84 1008.90 793.01 999.07 C 859.72 992.63 922.79 956.19 961.48 901.48 Z" />
<path fill="#808080" opacity="1.00" d=" M 1308.27 1036.27 C 1308.76 1036.76 1308.76 1036.76 1308.27 1036.27 Z" />
</svg>
